<?xml version="1.0" encoding="UTF-8" standalone="no"?>
<svg
   xmlns:dc="http://purl.org/dc/elements/1.1/"
   xmlns:cc="http://creativecommons.org/ns#"
   xmlns:rdf="http://www.w3.org/1999/02/22-rdf-syntax-ns#"
   xmlns:svg="http://www.w3.org/2000/svg"
   xmlns="http://www.w3.org/2000/svg"
   xmlns:sodipodi="http://sodipodi.sourceforge.net/DTD/sodipodi-0.dtd"
   xmlns:inkscape="http://www.inkscape.org/namespaces/inkscape"
   sodipodi:docname="home.svg"
   inkscape:version="1.0beta2 (2b71d25, 2019-12-03)"
   xml:space="preserve"
   enable-background="new 0 0 512 512"
   viewBox="0 0 512.99347 430.87311"
   height="430.87311"
   width="512.99347"
   y="0px"
   x="0px"
   id="Layer_1"
   version="1.1"><metadata
     id="metadata17"><rdf:RDF><cc:Work
         rdf:about=""><dc:format>image/svg+xml</dc:format><dc:type
           rdf:resource="http://purl.org/dc/dcmitype/StillImage" /><dc:title></dc:title></cc:Work></rdf:RDF></metadata><defs
     id="defs15" /><sodipodi:namedview
     fit-margin-bottom="0"
     fit-margin-right="0"
     fit-margin-left="0"
     fit-margin-top="0"
     inkscape:document-rotation="0"
     inkscape:current-layer="Layer_1"
     inkscape:window-maximized="0"
     inkscape:window-y="23"
     inkscape:window-x="0"
     inkscape:cy="215.37311"
     inkscape:cx="-26.621911"
     inkscape:zoom="0.4609375"
     showgrid="false"
     id="namedview13"
     inkscape:window-height="715"
     inkscape:window-width="1210"
     inkscape:pageshadow="2"
     inkscape:pageopacity="0"
     guidetolerance="10"
     gridtolerance="10"
     objecttolerance="10"
     borderopacity="1"
     bordercolor="#666666"
     pagecolor="#ffffff" /><g
     transform="translate(0.496733,-40.626893)"
     style="fill:#ffffff;fill-opacity:1;stroke:#000000;stroke-opacity:1"
     id="g3"><path
       inkscape:connector-curvature="0"
       style="fill:#ffffff;fill-opacity:1;stroke:#000000;stroke-opacity:1"
       id="path5"
       d="M 502.625,287.959 256,41.334 9.375,287.959 c -12.5,12.5 -12.5,32.75 0,45.25 12.5,12.5 32.75,12.5 45.25,0 L 64,323.834 V 438.584 471 h 32 320 32 v -32.416 -114.75 l 9.375,9.375 c 6.25,6.25 14.438,9.375 22.625,9.375 8.187,0 16.375,-3.125 22.625,-9.375 12.5,-12.5 12.5,-32.75 0,-45.25 z M 416,439 H 224 V 311 H 160 V 439 H 96 V 291.834 l 160,-160 160,160 z" /><rect
       style="fill:#ffffff;fill-opacity:1;stroke:#000000;stroke-opacity:1"
       id="rect7"
       height="64"
       width="64"
       y="311"
       x="288" /></g><rect
     style="fill:#ffffff;fill-opacity:1;stroke:#000000;stroke-opacity:1"
     id="rect9"
     height="64"
     width="64"
     y="270.37311"
     x="288.49673" /><polygon
     transform="translate(0.496733,-40.626893)"
     style="fill:#ffffff;fill-opacity:1;stroke:#000000;stroke-opacity:1"
     id="polygon11"
     points="96,55 96,156.084 160,92.084 160,55 " /></svg>
