<?xml version="1.0" encoding="UTF-8" standalone="no"?>
<!-- Generator: Adobe Illustrator 16.0.0, SVG Export Plug-In . SVG Version: 6.00 Build 0)  -->

<svg
   xmlns:dc="http://purl.org/dc/elements/1.1/"
   xmlns:cc="http://creativecommons.org/ns#"
   xmlns:rdf="http://www.w3.org/1999/02/22-rdf-syntax-ns#"
   xmlns:svg="http://www.w3.org/2000/svg"
   xmlns="http://www.w3.org/2000/svg"
   xmlns:sodipodi="http://sodipodi.sourceforge.net/DTD/sodipodi-0.dtd"
   xmlns:inkscape="http://www.inkscape.org/namespaces/inkscape"
   version="1.1"
   id="Layer_1"
   x="0px"
   y="0px"
   width="512px"
   height="512px"
   viewBox="0 0 512 512"
   enable-background="new 0 0 512 512"
   xml:space="preserve"
   inkscape:version="0.91 r13725"
   sodipodi:docname="home.svg"><metadata
     id="metadata17"><rdf:RDF><cc:Work
         rdf:about=""><dc:format>image/svg+xml</dc:format><dc:type
           rdf:resource="http://purl.org/dc/dcmitype/StillImage" /></cc:Work></rdf:RDF></metadata><defs
     id="defs15" /><sodipodi:namedview
     pagecolor="#ffffff"
     bordercolor="#666666"
     borderopacity="1"
     objecttolerance="10"
     gridtolerance="10"
     guidetolerance="10"
     inkscape:pageopacity="0"
     inkscape:pageshadow="2"
     inkscape:window-width="1210"
     inkscape:window-height="715"
     id="namedview13"
     showgrid="false"
     inkscape:zoom="0.4609375"
     inkscape:cx="256"
     inkscape:cy="256"
     inkscape:window-x="0"
     inkscape:window-y="0"
     inkscape:window-maximized="0"
     inkscape:current-layer="Layer_1" /><g
     id="g3"
     style="fill:#ffffff;fill-opacity:1;stroke:#000000;stroke-opacity:1"><path
       d="M502.625,287.959L256,41.334L9.375,287.959c-12.5,12.5-12.5,32.75,0,45.25s32.75,12.5,45.25,0L64,323.834v114.75V471h32   h320h32v-32.416v-114.75l9.375,9.375c6.25,6.25,14.438,9.375,22.625,9.375s16.375-3.125,22.625-9.375   C515.125,320.709,515.125,300.459,502.625,287.959z M416,439H224V311h-64v128H96V291.834l160-160l160,160V439z"
       id="path5"
       style="fill:#ffffff;fill-opacity:1;stroke:#000000;stroke-opacity:1" /><rect
       x="288"
       y="311"
       width="64"
       height="64"
       id="rect7"
       style="fill:#ffffff;fill-opacity:1;stroke:#000000;stroke-opacity:1" /></g><rect
     x="288"
     y="311"
     width="64"
     height="64"
     id="rect9"
     style="fill:#ffffff;fill-opacity:1;stroke:#000000;stroke-opacity:1" /><polygon
     points="160,92.084 160,55 96,55 96,156.084 "
     id="polygon11"
     style="fill:#ffffff;fill-opacity:1;stroke:#000000;stroke-opacity:1" /></svg>